<svg width="497" height="444" viewBox="0 0 497 444" fill="none" xmlns="http://www.w3.org/2000/svg">
<rect width="496.934" height="444" rx="10" fill="#1B2133"/>
<path d="M33.4777 400.148C34.3924 400.148 35.167 400.419 35.8017 400.96C36.4457 401.492 36.7677 402.225 36.7677 403.158C36.7677 404.091 36.4457 404.829 35.8017 405.37C35.167 405.902 34.3924 406.168 33.4777 406.168C32.563 406.168 31.7837 405.902 31.1397 405.37C30.505 404.829 30.1877 404.091 30.1877 403.158H31.1677C31.1677 403.811 31.3824 404.32 31.8117 404.684C32.2504 405.039 32.8057 405.216 33.4777 405.216C34.1497 405.216 34.7004 405.039 35.1297 404.684C35.5684 404.32 35.7877 403.811 35.7877 403.158C35.7877 402.505 35.5684 402.001 35.1297 401.646C34.7004 401.282 34.1497 401.1 33.4777 401.1H30.6777L31.0277 396.2H36.4177V397.124H31.9237L31.7137 400.148H33.4777ZM37.7482 406V405.118L41.2762 401.562C42.2842 400.554 42.7882 399.691 42.7882 398.972C42.7882 398.347 42.5922 397.861 42.2002 397.516C41.8176 397.161 41.3556 396.984 40.8142 396.984C40.2076 396.984 39.7082 397.147 39.3162 397.474C38.9242 397.801 38.7282 398.3 38.7282 398.972H37.7482C37.7482 398.029 38.0469 397.306 38.6442 396.802C39.2416 396.289 39.9649 396.032 40.8142 396.032C41.5982 396.032 42.2842 396.298 42.8722 396.83C43.4696 397.353 43.7682 398.067 43.7682 398.972C43.7682 399.541 43.6096 400.087 43.2922 400.61C42.9749 401.133 42.5269 401.683 41.9482 402.262L39.1482 405.048H43.9782V406H37.7482ZM53.2237 399V399.896H49.9477V406H49.0237V399H53.2237ZM59.8663 405.118C59.1569 405.818 58.2889 406.168 57.2623 406.168C56.2356 406.168 55.3629 405.818 54.6443 405.118C53.9349 404.409 53.5803 403.536 53.5803 402.5C53.5803 401.464 53.9349 400.596 54.6443 399.896C55.3629 399.187 56.2356 398.832 57.2623 398.832C58.2889 398.832 59.1569 399.187 59.8663 399.896C60.5849 400.596 60.9443 401.464 60.9443 402.5C60.9443 403.536 60.5849 404.409 59.8663 405.118ZM55.3023 404.474C55.8343 405.006 56.4876 405.272 57.2623 405.272C58.0369 405.272 58.6903 405.006 59.2223 404.474C59.7543 403.933 60.0203 403.275 60.0203 402.5C60.0203 401.725 59.7543 401.072 59.2223 400.54C58.6903 399.999 58.0369 399.728 57.2623 399.728C56.4876 399.728 55.8343 399.999 55.3023 400.54C54.7703 401.072 54.5043 401.725 54.5043 402.5C54.5043 403.275 54.7703 403.933 55.3023 404.474ZM67.8171 405.104H68.7971V406V408.016H67.8731V406H66.8931H62.4411V408.016H61.5171V405.496V405.104H62.3711C62.8471 404.479 63.0851 403.597 63.0851 402.458V399H64.0091H67.1591H67.8171V405.104ZM63.4911 405.104H66.8931V399.896H64.0091V402.458C64.0091 403.531 63.8364 404.413 63.4911 405.104ZM72.448 398.832C73.2413 398.832 73.8807 399.07 74.366 399.546C74.8607 400.013 75.108 400.647 75.108 401.45V406H74.184V405.216C73.736 405.851 73.0127 406.168 72.014 406.168C71.3233 406.168 70.7307 405.972 70.236 405.58C69.7507 405.188 69.508 404.633 69.508 403.914C69.508 403.195 69.7507 402.64 70.236 402.248C70.7307 401.856 71.3233 401.66 72.014 401.66C72.9847 401.66 73.708 401.963 74.184 402.57V401.45C74.184 400.862 74.016 400.428 73.68 400.148C73.3533 399.868 72.9427 399.728 72.448 399.728C71.9627 399.728 71.552 399.854 71.216 400.106C70.88 400.349 70.712 400.703 70.712 401.17H69.788C69.788 400.498 70.0353 399.943 70.53 399.504C71.0247 399.056 71.664 398.832 72.448 398.832ZM72.238 405.3C72.798 405.3 73.26 405.169 73.624 404.908C73.9973 404.647 74.184 404.315 74.184 403.914C74.184 403.494 74.002 403.158 73.638 402.906C73.274 402.654 72.8073 402.528 72.238 402.528C71.6407 402.528 71.188 402.654 70.88 402.906C70.5813 403.158 70.432 403.494 70.432 403.914C70.432 404.334 70.5813 404.67 70.88 404.922C71.188 405.174 71.6407 405.3 72.238 405.3Z" fill="#F2F60F"/>
<path d="M41.2293 382.38L40.5093 380.265H36.1443L35.4393 382.38H33.5643L37.2993 371.88H39.3693L43.0893 382.38H41.2293ZM36.6993 378.645H39.9543L38.3343 373.845L36.6993 378.645ZM50.6572 382.38H48.7222L45.7222 378.915V382.38H44.1022V371.88H45.7222V378.195L48.5722 374.88H50.5072L47.2972 378.555L50.6572 382.38ZM52.8731 376.365C52.6531 376.505 52.5431 376.71 52.5431 376.98C52.5431 377.25 52.6831 377.465 52.9631 377.625C53.2531 377.775 53.5981 377.895 53.9981 377.985C54.4081 378.065 54.8181 378.17 55.2281 378.3C55.6381 378.43 55.9831 378.66 56.2631 378.99C56.5531 379.31 56.6981 379.735 56.6981 380.265C56.6981 380.985 56.4181 381.55 55.8581 381.96C55.3081 382.37 54.6081 382.575 53.7581 382.575C52.8881 382.575 52.1781 382.355 51.6281 381.915C51.0781 381.475 50.8031 380.855 50.8031 380.055H52.3931C52.3931 380.765 52.8481 381.12 53.7581 381.12C54.1581 381.12 54.4781 381.05 54.7181 380.91C54.9581 380.76 55.0781 380.545 55.0781 380.265C55.0781 379.995 54.9331 379.785 54.6431 379.635C54.3631 379.485 54.0181 379.37 53.6081 379.29C53.1981 379.2 52.7881 379.09 52.3781 378.96C51.9781 378.83 51.6331 378.6 51.3431 378.27C51.0631 377.94 50.9231 377.51 50.9231 376.98C50.9231 376.28 51.1931 375.725 51.7331 375.315C52.2831 374.895 52.9581 374.685 53.7581 374.685C54.5481 374.685 55.2081 374.905 55.7381 375.345C56.2781 375.785 56.5481 376.4 56.5481 377.19H54.9581C54.9581 376.84 54.8431 376.58 54.6131 376.41C54.3831 376.23 54.0981 376.14 53.7581 376.14C53.3981 376.14 53.1031 376.215 52.8731 376.365ZM61.988 374.685C62.708 374.685 63.298 374.945 63.758 375.465C64.228 375.975 64.463 376.67 64.463 377.55V382.38H62.843V377.64C62.843 377.18 62.713 376.825 62.453 376.575C62.203 376.325 61.873 376.2 61.463 376.2C61.003 376.2 60.618 376.35 60.308 376.65C60.008 376.95 59.858 377.425 59.858 378.075V382.38H58.238V371.88H59.858V375.735C60.318 375.035 61.028 374.685 61.988 374.685ZM69.0578 374.685C69.9278 374.685 70.6428 374.94 71.2028 375.45C71.7628 375.96 72.0428 376.67 72.0428 377.58V382.38H70.4528V381.675C69.9728 382.275 69.2628 382.575 68.3228 382.575C67.6028 382.575 66.9928 382.37 66.4928 381.96C65.9928 381.54 65.7428 380.95 65.7428 380.19C65.7428 379.43 65.9928 378.845 66.4928 378.435C66.9928 378.025 67.6028 377.82 68.3228 377.82C69.2328 377.82 69.9428 378.075 70.4528 378.585V377.655C70.4528 377.155 70.3278 376.79 70.0778 376.56C69.8278 376.32 69.4878 376.2 69.0578 376.2C68.6478 376.2 68.3128 376.305 68.0528 376.515C67.7928 376.715 67.6628 376.995 67.6628 377.355H66.0728C66.0728 376.545 66.3528 375.9 66.9128 375.42C67.4828 374.93 68.1978 374.685 69.0578 374.685ZM68.8478 381.315C69.3278 381.315 69.7128 381.21 70.0028 381C70.3028 380.79 70.4528 380.52 70.4528 380.19C70.4528 379.85 70.3028 379.58 70.0028 379.38C69.7128 379.18 69.3278 379.08 68.8478 379.08C68.3578 379.08 67.9878 379.18 67.7378 379.38C67.4878 379.58 67.3628 379.85 67.3628 380.19C67.3628 380.53 67.4878 380.805 67.7378 381.015C67.9878 381.215 68.3578 381.315 68.8478 381.315ZM78.1945 374.88H79.9195L76.3195 385.38H74.5945L75.6445 382.29L72.7195 374.88H74.4445L76.4545 380.04L78.1945 374.88ZM92.718 382.38H90.663L86.523 377.385V382.38H84.798V371.88H86.523V376.575L90.513 371.88H92.568L88.308 376.995L92.718 382.38ZM97.8632 374.88H99.4832V382.38H97.8632V381.525C97.4032 382.225 96.6932 382.575 95.7332 382.575C95.0132 382.575 94.4182 382.32 93.9482 381.81C93.4882 381.29 93.2582 380.59 93.2582 379.71V374.88H94.8782V379.605C94.8782 380.075 95.0032 380.435 95.2532 380.685C95.5032 380.935 95.8332 381.06 96.2432 381.06C96.7132 381.06 97.0982 380.91 97.3982 380.61C97.7082 380.3 97.8632 379.825 97.8632 379.185V374.88ZM108.833 374.685C109.533 374.685 110.098 374.915 110.528 375.375C110.968 375.835 111.188 376.485 111.188 377.325V382.38H109.568V377.415C109.568 376.995 109.463 376.69 109.253 376.5C109.043 376.3 108.768 376.2 108.428 376.2C108.068 376.2 107.753 376.325 107.483 376.575C107.213 376.815 107.078 377.215 107.078 377.775V382.38H105.458V377.415C105.458 376.995 105.353 376.69 105.143 376.5C104.933 376.3 104.663 376.2 104.333 376.2C103.973 376.2 103.658 376.325 103.388 376.575C103.118 376.815 102.983 377.215 102.983 377.775V382.38H101.363V374.88H102.983V375.66C103.403 375.01 104.023 374.685 104.843 374.685C105.693 374.685 106.318 375.045 106.718 375.765C107.238 375.045 107.943 374.685 108.833 374.685ZM115.772 374.685C116.642 374.685 117.357 374.94 117.917 375.45C118.477 375.96 118.757 376.67 118.757 377.58V382.38H117.167V381.675C116.687 382.275 115.977 382.575 115.037 382.575C114.317 382.575 113.707 382.37 113.207 381.96C112.707 381.54 112.457 380.95 112.457 380.19C112.457 379.43 112.707 378.845 113.207 378.435C113.707 378.025 114.317 377.82 115.037 377.82C115.947 377.82 116.657 378.075 117.167 378.585V377.655C117.167 377.155 117.042 376.79 116.792 376.56C116.542 376.32 116.202 376.2 115.772 376.2C115.362 376.2 115.027 376.305 114.767 376.515C114.507 376.715 114.377 376.995 114.377 377.355H112.787C112.787 376.545 113.067 375.9 113.627 375.42C114.197 374.93 114.912 374.685 115.772 374.685ZM115.562 381.315C116.042 381.315 116.427 381.21 116.717 381C117.017 380.79 117.167 380.52 117.167 380.19C117.167 379.85 117.017 379.58 116.717 379.38C116.427 379.18 116.042 379.08 115.562 379.08C115.072 379.08 114.702 379.18 114.452 379.38C114.202 379.58 114.077 379.85 114.077 380.19C114.077 380.53 114.202 380.805 114.452 381.015C114.702 381.215 115.072 381.315 115.562 381.315ZM122.07 376.005C122.48 375.165 123.2 374.745 124.23 374.745V376.5C123.63 376.46 123.12 376.605 122.7 376.935C122.28 377.255 122.07 377.785 122.07 378.525V382.38H120.45V374.88H122.07V376.005Z" fill="#3B486B"/>
<path d="M396.241 368.923C397.331 368.923 398.221 369.258 398.911 369.928C399.601 370.588 399.946 371.448 399.946 372.508C399.946 373.568 399.601 374.433 398.911 375.103C398.221 375.763 397.331 376.093 396.241 376.093C395.141 376.093 394.246 375.763 393.556 375.103C392.866 374.433 392.521 373.568 392.521 372.508C392.521 371.708 392.731 371.003 393.151 370.393L396.481 365.398H398.446L396.046 368.923H396.241ZM396.241 374.458C396.821 374.458 397.296 374.283 397.666 373.933C398.036 373.573 398.221 373.098 398.221 372.508C398.221 371.918 398.036 371.448 397.666 371.098C397.296 370.738 396.821 370.558 396.241 370.558C395.651 370.558 395.171 370.738 394.801 371.098C394.431 371.448 394.246 371.918 394.246 372.508C394.246 373.098 394.431 373.573 394.801 373.933C395.171 374.283 395.651 374.458 396.241 374.458ZM401.37 372.118V370.558H406.92V372.118H401.37ZM410.171 372.838C410.291 373.438 410.556 373.898 410.966 374.218C411.386 374.538 411.891 374.698 412.481 374.698C412.881 374.698 413.241 374.613 413.561 374.443C413.881 374.273 414.111 374.053 414.251 373.783L415.901 373.768C415.671 374.488 415.246 375.058 414.626 375.478C414.016 375.888 413.291 376.093 412.451 376.093C411.271 376.093 410.316 375.723 409.586 374.983C408.856 374.233 408.491 373.288 408.491 372.148C408.491 371.018 408.856 370.078 409.586 369.328C410.316 368.578 411.261 368.203 412.421 368.203C413.521 368.203 414.416 368.588 415.106 369.358C415.796 370.118 416.141 371.053 416.141 372.163C416.141 372.333 416.121 372.558 416.081 372.838H410.171ZM410.156 371.503H414.506C414.406 370.903 414.161 370.448 413.771 370.138C413.391 369.828 412.941 369.673 412.421 369.673C411.821 369.673 411.321 369.838 410.921 370.168C410.521 370.498 410.266 370.943 410.156 371.503ZM429.075 368.398V375.898H427.5V370.858L425.655 374.458H424.695L422.85 370.858V375.898H421.275V368.398H422.85H423.015L425.175 372.613L427.335 368.398H429.075ZM432.203 372.838C432.323 373.438 432.588 373.898 432.998 374.218C433.418 374.538 433.923 374.698 434.513 374.698C434.913 374.698 435.273 374.613 435.593 374.443C435.913 374.273 436.143 374.053 436.283 373.783L437.933 373.768C437.703 374.488 437.278 375.058 436.658 375.478C436.048 375.888 435.323 376.093 434.483 376.093C433.303 376.093 432.348 375.723 431.618 374.983C430.888 374.233 430.523 373.288 430.523 372.148C430.523 371.018 430.888 370.078 431.618 369.328C432.348 368.578 433.293 368.203 434.453 368.203C435.553 368.203 436.448 368.588 437.138 369.358C437.828 370.118 438.173 371.053 438.173 372.163C438.173 372.333 438.153 372.558 438.113 372.838H432.203ZM432.188 371.503H436.538C436.438 370.903 436.193 370.448 435.803 370.138C435.423 369.828 434.973 369.673 434.453 369.673C433.853 369.673 433.353 369.838 432.953 370.168C432.553 370.498 432.298 370.943 432.188 371.503ZM446.801 373.273C446.611 374.103 446.171 374.783 445.481 375.313C444.791 375.833 443.996 376.093 443.096 376.093C441.966 376.093 441.021 375.713 440.261 374.953C439.511 374.193 439.136 373.258 439.136 372.148C439.136 371.028 439.511 370.093 440.261 369.343C441.021 368.583 441.966 368.203 443.096 368.203C444.006 368.203 444.801 368.468 445.481 368.998C446.171 369.518 446.611 370.193 446.801 371.023H445.091C444.931 370.643 444.671 370.343 444.311 370.123C443.961 369.903 443.556 369.793 443.096 369.793C442.436 369.793 441.881 370.018 441.431 370.468C440.981 370.918 440.756 371.478 440.756 372.148C440.756 372.818 440.981 373.378 441.431 373.828C441.881 374.278 442.436 374.503 443.096 374.503C443.556 374.503 443.966 374.393 444.326 374.173C444.686 373.943 444.941 373.643 445.091 373.273H446.801ZM453.065 368.398V369.928H450.92V375.898H449.3V369.928H447.14V368.398H450.92H453.065ZM457.437 376.093C456.337 376.093 455.402 375.713 454.632 374.953C453.862 374.193 453.477 373.258 453.477 372.148C453.477 371.038 453.862 370.103 454.632 369.343C455.402 368.583 456.337 368.203 457.437 368.203C458.547 368.203 459.482 368.583 460.242 369.343C461.012 370.103 461.397 371.038 461.397 372.148C461.397 373.258 461.012 374.193 460.242 374.953C459.482 375.713 458.547 376.093 457.437 376.093ZM455.772 373.843C456.222 374.293 456.777 374.518 457.437 374.518C458.097 374.518 458.652 374.293 459.102 373.843C459.552 373.393 459.777 372.828 459.777 372.148C459.777 371.468 459.552 370.903 459.102 370.453C458.652 370.003 458.097 369.778 457.437 369.778C456.777 369.778 456.222 370.003 455.772 370.453C455.322 370.903 455.097 371.468 455.097 372.148C455.097 372.828 455.322 373.393 455.772 373.843Z" fill="#F2F60F"/>
<path d="M43.4893 360.292L42.6893 357.772H37.3293L36.5293 360.292H33.5493L38.3093 346.292H41.7293L46.4893 360.292H43.4893ZM38.1493 355.192H41.8693L40.0093 349.352L38.1493 355.192ZM56.7957 360.292H53.8157L50.3157 355.772V360.292H47.7357V350.292H50.3157V354.692L53.6157 350.292H56.5957L52.7957 355.232L56.7957 360.292ZM68.5877 350.292H71.1677V360.292H68.5877H63.3277H58.9277H58.0677V350.292H60.6477V357.872H63.3277V350.292H65.9077V357.872H68.5877V350.292ZM77.5364 350.012C78.7098 350.012 79.6831 350.359 80.4564 351.052C81.2298 351.732 81.6164 352.692 81.6164 353.932V360.292H79.0964V359.432C78.4698 360.192 77.5631 360.572 76.3764 360.572C75.4298 360.572 74.6298 360.299 73.9764 359.752C73.3364 359.192 73.0164 358.412 73.0164 357.412C73.0164 356.412 73.3364 355.639 73.9764 355.092C74.6298 354.545 75.4298 354.272 76.3764 354.272C77.5098 354.272 78.4164 354.565 79.0964 355.152V354.092C79.0964 352.972 78.5764 352.412 77.5364 352.412C77.0698 352.412 76.6964 352.532 76.4164 352.772C76.1364 352.999 75.9964 353.305 75.9964 353.692H73.4764C73.4764 352.559 73.8631 351.665 74.6364 351.012C75.4231 350.345 76.3898 350.012 77.5364 350.012ZM77.2564 358.652C77.8164 358.652 78.2631 358.539 78.5964 358.312C78.9298 358.072 79.0964 357.772 79.0964 357.412C79.0964 357.025 78.9298 356.725 78.5964 356.512C78.2764 356.285 77.8298 356.172 77.2564 356.172C76.7098 356.172 76.2964 356.285 76.0164 356.512C75.7364 356.739 75.5964 357.039 75.5964 357.412C75.5964 357.785 75.7364 358.085 76.0164 358.312C76.2964 358.539 76.7098 358.652 77.2564 358.652ZM85.0922 349.012V346.772H90.8922V349.012H85.0922ZM90.3322 350.292H92.2522V360.292H89.7322V354.492L85.6322 360.292H83.7122V350.292H86.2322V356.092L90.3322 350.292ZM110.671 360.292H107.491L102.491 353.712V360.292H99.7307V346.292H102.491V352.472L107.291 346.292H110.471L105.291 353.112L110.671 360.292ZM116.917 350.292H119.677L116.277 360.292C115.811 361.705 115.124 362.739 114.217 363.392C113.311 364.059 112.237 364.359 110.997 364.292V361.892C111.691 361.905 112.237 361.772 112.637 361.492C113.037 361.225 113.351 360.772 113.577 360.132L109.757 350.292H112.517L114.937 356.872L116.917 350.292ZM131.6 350.292V360.292H129.1V354.112L126.94 358.412H125.54L123.38 354.112V360.292H120.9V350.292H123.38H123.62L126.24 355.512L128.88 350.292H131.6ZM137.966 350.012C139.139 350.012 140.113 350.359 140.886 351.052C141.659 351.732 142.046 352.692 142.046 353.932V360.292H139.526V359.432C138.899 360.192 137.993 360.572 136.806 360.572C135.859 360.572 135.059 360.299 134.406 359.752C133.766 359.192 133.446 358.412 133.446 357.412C133.446 356.412 133.766 355.639 134.406 355.092C135.059 354.545 135.859 354.272 136.806 354.272C137.939 354.272 138.846 354.565 139.526 355.152V354.092C139.526 352.972 139.006 352.412 137.966 352.412C137.499 352.412 137.126 352.532 136.846 352.772C136.566 352.999 136.426 353.305 136.426 353.692H133.906C133.906 352.559 134.293 351.665 135.066 351.012C135.853 350.345 136.819 350.012 137.966 350.012ZM137.686 358.652C138.246 358.652 138.693 358.539 139.026 358.312C139.359 358.072 139.526 357.772 139.526 357.412C139.526 357.025 139.359 356.725 139.026 356.512C138.706 356.285 138.259 356.172 137.686 356.172C137.139 356.172 136.726 356.285 136.446 356.512C136.166 356.739 136.026 357.039 136.026 357.412C136.026 357.785 136.166 358.085 136.446 358.312C136.726 358.539 137.139 358.652 137.686 358.652ZM149.962 350.012C151.309 350.012 152.455 350.525 153.402 351.552C154.362 352.565 154.842 353.812 154.842 355.292C154.842 356.772 154.362 358.025 153.402 359.052C152.455 360.065 151.309 360.572 149.962 360.572C148.575 360.572 147.495 360.092 146.722 359.132V364.292H144.142V350.292H146.722V351.452C147.495 350.492 148.575 350.012 149.962 350.012ZM149.482 358.112C150.282 358.112 150.942 357.852 151.462 357.332C151.995 356.799 152.262 356.119 152.262 355.292C152.262 354.465 151.995 353.792 151.462 353.272C150.942 352.739 150.282 352.472 149.482 352.472C148.722 352.472 148.082 352.719 147.562 353.212C147.042 353.692 146.762 354.325 146.722 355.112V355.472C146.762 356.259 147.042 356.899 147.562 357.392C148.082 357.872 148.722 358.112 149.482 358.112Z" fill="white"/>
<line x1="33.4893" y1="325.248" x2="467.767" y2="325.248" stroke="#1E2538" stroke-width="2"/>
<path d="M37.3977 300.116V301.04H36.1377V303H35.1577V301.04H29.9777V300.116L33.6177 293.2H34.6957L31.0557 300.116H35.1577V297.12H36.1377V300.116H37.3977ZM38.0353 303V302.118L41.5633 298.562C42.5713 297.554 43.0753 296.691 43.0753 295.972C43.0753 295.347 42.8793 294.861 42.4873 294.516C42.1047 294.161 41.6427 293.984 41.1013 293.984C40.4947 293.984 39.9953 294.147 39.6033 294.474C39.2113 294.801 39.0153 295.3 39.0153 295.972H38.0353C38.0353 295.029 38.334 294.306 38.9313 293.802C39.5287 293.289 40.252 293.032 41.1013 293.032C41.8853 293.032 42.5713 293.298 43.1593 293.83C43.7567 294.353 44.0553 295.067 44.0553 295.972C44.0553 296.541 43.8967 297.087 43.5793 297.61C43.262 298.133 42.814 298.683 42.2353 299.262L39.4353 302.048H44.2653V303H38.0353ZM53.5108 296V296.896H50.2348V303H49.3108V296H53.5108ZM60.1534 302.118C59.444 302.818 58.576 303.168 57.5494 303.168C56.5227 303.168 55.65 302.818 54.9314 302.118C54.222 301.409 53.8674 300.536 53.8674 299.5C53.8674 298.464 54.222 297.596 54.9314 296.896C55.65 296.187 56.5227 295.832 57.5494 295.832C58.576 295.832 59.444 296.187 60.1534 296.896C60.872 297.596 61.2314 298.464 61.2314 299.5C61.2314 300.536 60.872 301.409 60.1534 302.118ZM55.5894 301.474C56.1214 302.006 56.7747 302.272 57.5494 302.272C58.324 302.272 58.9774 302.006 59.5094 301.474C60.0414 300.933 60.3074 300.275 60.3074 299.5C60.3074 298.725 60.0414 298.072 59.5094 297.54C58.9774 296.999 58.324 296.728 57.5494 296.728C56.7747 296.728 56.1214 296.999 55.5894 297.54C55.0574 298.072 54.7914 298.725 54.7914 299.5C54.7914 300.275 55.0574 300.933 55.5894 301.474ZM68.1042 302.104H69.0842V303V305.016H68.1602V303H67.1802H62.7282V305.016H61.8042V302.496V302.104H62.6582C63.1342 301.479 63.3722 300.597 63.3722 299.458V296H64.2962H67.4462H68.1042V302.104ZM63.7782 302.104H67.1802V296.896H64.2962V299.458C64.2962 300.531 64.1235 301.413 63.7782 302.104ZM72.7351 295.832C73.5284 295.832 74.1678 296.07 74.6531 296.546C75.1478 297.013 75.3951 297.647 75.3951 298.45V303H74.4711V302.216C74.0231 302.851 73.2998 303.168 72.3011 303.168C71.6104 303.168 71.0178 302.972 70.5231 302.58C70.0378 302.188 69.7951 301.633 69.7951 300.914C69.7951 300.195 70.0378 299.64 70.5231 299.248C71.0178 298.856 71.6104 298.66 72.3011 298.66C73.2718 298.66 73.9951 298.963 74.4711 299.57V298.45C74.4711 297.862 74.3031 297.428 73.9671 297.148C73.6404 296.868 73.2298 296.728 72.7351 296.728C72.2498 296.728 71.8391 296.854 71.5031 297.106C71.1671 297.349 70.9991 297.703 70.9991 298.17H70.0751C70.0751 297.498 70.3224 296.943 70.8171 296.504C71.3118 296.056 71.9511 295.832 72.7351 295.832ZM72.5251 302.3C73.0851 302.3 73.5471 302.169 73.9111 301.908C74.2844 301.647 74.4711 301.315 74.4711 300.914C74.4711 300.494 74.2891 300.158 73.9251 299.906C73.5611 299.654 73.0944 299.528 72.5251 299.528C71.9278 299.528 71.4751 299.654 71.1671 299.906C70.8684 300.158 70.7191 300.494 70.7191 300.914C70.7191 301.334 70.8684 301.67 71.1671 301.922C71.4751 302.174 71.9278 302.3 72.5251 302.3Z" fill="#F2F60F"/>
<path d="M40.7643 268.171V269.821H38.1093V278.671H36.3843V269.821H33.7143V268.171H38.1093H40.7643ZM44.1998 278.866C43.0998 278.866 42.1648 278.486 41.3948 277.726C40.6248 276.966 40.2398 276.031 40.2398 274.921C40.2398 273.811 40.6248 272.876 41.3948 272.116C42.1648 271.356 43.0998 270.976 44.1998 270.976C45.3098 270.976 46.2448 271.356 47.0048 272.116C47.7748 272.876 48.1598 273.811 48.1598 274.921C48.1598 276.031 47.7748 276.966 47.0048 277.726C46.2448 278.486 45.3098 278.866 44.1998 278.866ZM42.5348 276.616C42.9848 277.066 43.5398 277.291 44.1998 277.291C44.8598 277.291 45.4148 277.066 45.8648 276.616C46.3148 276.166 46.5398 275.601 46.5398 274.921C46.5398 274.241 46.3148 273.676 45.8648 273.226C45.4148 272.776 44.8598 272.551 44.1998 272.551C43.5398 272.551 42.9848 272.776 42.5348 273.226C42.0848 273.676 41.8598 274.241 41.8598 274.921C41.8598 275.601 42.0848 276.166 42.5348 276.616ZM57.0947 270.976C57.7947 270.976 58.3597 271.206 58.7897 271.666C59.2297 272.126 59.4497 272.776 59.4497 273.616V278.671H57.8297V273.706C57.8297 273.286 57.7247 272.981 57.5147 272.791C57.3047 272.591 57.0297 272.491 56.6897 272.491C56.3297 272.491 56.0147 272.616 55.7447 272.866C55.4747 273.106 55.3397 273.506 55.3397 274.066V278.671H53.7197V273.706C53.7197 273.286 53.6147 272.981 53.4047 272.791C53.1947 272.591 52.9247 272.491 52.5947 272.491C52.2347 272.491 51.9197 272.616 51.6497 272.866C51.3797 273.106 51.2447 273.506 51.2447 274.066V278.671H49.6247V271.171H51.2447V271.951C51.6647 271.301 52.2847 270.976 53.1047 270.976C53.9547 270.976 54.5797 271.336 54.9797 272.056C55.4997 271.336 56.2047 270.976 57.0947 270.976ZM70.6934 268.171H72.4184V278.671H70.6934V274.096H66.7184V278.671H64.9934V268.171H66.7184V272.446H70.6934V268.171ZM77.3048 270.976C78.1748 270.976 78.8898 271.231 79.4498 271.741C80.0098 272.251 80.2898 272.961 80.2898 273.871V278.671H78.6998V277.966C78.2198 278.566 77.5098 278.866 76.5698 278.866C75.8498 278.866 75.2398 278.661 74.7398 278.251C74.2398 277.831 73.9898 277.241 73.9898 276.481C73.9898 275.721 74.2398 275.136 74.7398 274.726C75.2398 274.316 75.8498 274.111 76.5698 274.111C77.4798 274.111 78.1898 274.366 78.6998 274.876V273.946C78.6998 273.446 78.5748 273.081 78.3248 272.851C78.0748 272.611 77.7348 272.491 77.3048 272.491C76.8948 272.491 76.5598 272.596 76.2998 272.806C76.0398 273.006 75.9098 273.286 75.9098 273.646H74.3198C74.3198 272.836 74.5998 272.191 75.1598 271.711C75.7298 271.221 76.4448 270.976 77.3048 270.976ZM77.0948 277.606C77.5748 277.606 77.9598 277.501 78.2498 277.291C78.5498 277.081 78.6998 276.811 78.6998 276.481C78.6998 276.141 78.5498 275.871 78.2498 275.671C77.9598 275.471 77.5748 275.371 77.0948 275.371C76.6048 275.371 76.2348 275.471 75.9848 275.671C75.7348 275.871 75.6098 276.141 75.6098 276.481C75.6098 276.821 75.7348 277.096 75.9848 277.306C76.2348 277.506 76.6048 277.606 77.0948 277.606ZM83.6031 272.296C84.0131 271.456 84.7331 271.036 85.7631 271.036V272.791C85.1631 272.751 84.6531 272.896 84.2331 273.226C83.8131 273.546 83.6031 274.076 83.6031 274.816V278.671H81.9831V271.171H83.6031V272.296ZM92.5963 268.171H94.2163V278.671H92.5963V277.591C91.9763 278.441 91.0963 278.866 89.9563 278.866C88.9263 278.866 88.0463 278.486 87.3163 277.726C86.5963 276.956 86.2363 276.021 86.2363 274.921C86.2363 273.811 86.5963 272.876 87.3163 272.116C88.0463 271.356 88.9263 270.976 89.9563 270.976C91.1063 270.976 91.9863 271.401 92.5963 272.251V268.171ZM88.5313 276.646C88.9813 277.096 89.5463 277.321 90.2263 277.321C90.9063 277.321 91.4713 277.096 91.9213 276.646C92.3713 276.186 92.5963 275.611 92.5963 274.921C92.5963 274.231 92.3713 273.661 91.9213 273.211C91.4713 272.751 90.9063 272.521 90.2263 272.521C89.5463 272.521 88.9813 272.751 88.5313 273.211C88.0813 273.661 87.8563 274.231 87.8563 274.921C87.8563 275.611 88.0813 276.186 88.5313 276.646ZM100.695 271.171H102.42L98.8195 281.671H97.0945L98.1445 278.581L95.2195 271.171H96.9445L98.9545 276.331L100.695 271.171Z" fill="#3B486B"/>
<path d="M396.391 265.649C397.411 265.649 398.266 265.949 398.956 266.549C399.646 267.139 399.991 267.959 399.991 269.009C399.991 270.059 399.636 270.884 398.926 271.484C398.216 272.084 397.346 272.384 396.316 272.384C395.286 272.384 394.416 272.084 393.706 271.484C392.996 270.884 392.641 270.059 392.641 269.009H394.366C394.366 269.529 394.541 269.944 394.891 270.254C395.241 270.554 395.716 270.704 396.316 270.704C396.906 270.704 397.376 270.554 397.726 270.254C398.086 269.944 398.266 269.529 398.266 269.009C398.266 268.489 398.086 268.079 397.726 267.779C397.376 267.479 396.906 267.329 396.316 267.329H393.136L393.541 261.689H399.541V263.309H395.146L394.966 265.649H396.391ZM401.516 268.409V266.849H407.066V268.409H401.516ZM410.318 269.129C410.438 269.729 410.703 270.189 411.113 270.509C411.533 270.829 412.038 270.989 412.628 270.989C413.028 270.989 413.388 270.904 413.708 270.734C414.028 270.564 414.258 270.344 414.398 270.074L416.048 270.059C415.818 270.779 415.393 271.349 414.773 271.769C414.163 272.179 413.438 272.384 412.598 272.384C411.418 272.384 410.463 272.014 409.733 271.274C409.003 270.524 408.638 269.579 408.638 268.439C408.638 267.309 409.003 266.369 409.733 265.619C410.463 264.869 411.408 264.494 412.568 264.494C413.668 264.494 414.563 264.879 415.253 265.649C415.943 266.409 416.288 267.344 416.288 268.454C416.288 268.624 416.268 268.849 416.228 269.129H410.318ZM410.303 267.794H414.653C414.553 267.194 414.308 266.739 413.918 266.429C413.538 266.119 413.088 265.964 412.568 265.964C411.968 265.964 411.468 266.129 411.068 266.459C410.668 266.789 410.413 267.234 410.303 267.794ZM429.221 264.689V272.189H427.646V267.149L425.801 270.749H424.841L422.996 267.149V272.189H421.421V264.689H422.996H423.161L425.321 268.904L427.481 264.689H429.221ZM432.349 269.129C432.469 269.729 432.734 270.189 433.144 270.509C433.564 270.829 434.069 270.989 434.659 270.989C435.059 270.989 435.419 270.904 435.739 270.734C436.059 270.564 436.289 270.344 436.429 270.074L438.079 270.059C437.849 270.779 437.424 271.349 436.804 271.769C436.194 272.179 435.469 272.384 434.629 272.384C433.449 272.384 432.494 272.014 431.764 271.274C431.034 270.524 430.669 269.579 430.669 268.439C430.669 267.309 431.034 266.369 431.764 265.619C432.494 264.869 433.439 264.494 434.599 264.494C435.699 264.494 436.594 264.879 437.284 265.649C437.974 266.409 438.319 267.344 438.319 268.454C438.319 268.624 438.299 268.849 438.259 269.129H432.349ZM432.334 267.794H436.684C436.584 267.194 436.339 266.739 435.949 266.429C435.569 266.119 435.119 265.964 434.599 265.964C433.999 265.964 433.499 266.129 433.099 266.459C432.699 266.789 432.444 267.234 432.334 267.794ZM446.947 269.564C446.757 270.394 446.317 271.074 445.627 271.604C444.937 272.124 444.142 272.384 443.242 272.384C442.112 272.384 441.167 272.004 440.407 271.244C439.657 270.484 439.282 269.549 439.282 268.439C439.282 267.319 439.657 266.384 440.407 265.634C441.167 264.874 442.112 264.494 443.242 264.494C444.152 264.494 444.947 264.759 445.627 265.289C446.317 265.809 446.757 266.484 446.947 267.314H445.237C445.077 266.934 444.817 266.634 444.457 266.414C444.107 266.194 443.702 266.084 443.242 266.084C442.582 266.084 442.027 266.309 441.577 266.759C441.127 267.209 440.902 267.769 440.902 268.439C440.902 269.109 441.127 269.669 441.577 270.119C442.027 270.569 442.582 270.794 443.242 270.794C443.702 270.794 444.112 270.684 444.472 270.464C444.832 270.234 445.087 269.934 445.237 269.564H446.947ZM453.211 264.689V266.219H451.066V272.189H449.446V266.219H447.286V264.689H451.066H453.211ZM457.583 272.384C456.483 272.384 455.548 272.004 454.778 271.244C454.008 270.484 453.623 269.549 453.623 268.439C453.623 267.329 454.008 266.394 454.778 265.634C455.548 264.874 456.483 264.494 457.583 264.494C458.693 264.494 459.628 264.874 460.388 265.634C461.158 266.394 461.543 267.329 461.543 268.439C461.543 269.549 461.158 270.484 460.388 271.244C459.628 272.004 458.693 272.384 457.583 272.384ZM455.918 270.134C456.368 270.584 456.923 270.809 457.583 270.809C458.243 270.809 458.798 270.584 459.248 270.134C459.698 269.684 459.923 269.119 459.923 268.439C459.923 267.759 459.698 267.194 459.248 266.744C458.798 266.294 458.243 266.069 457.583 266.069C456.923 266.069 456.368 266.294 455.918 266.744C455.468 267.194 455.243 267.759 455.243 268.439C455.243 269.119 455.468 269.684 455.918 270.134Z" fill="#F2F60F"/>
<path d="M43.3877 243V245.64H40.0077V257H37.2477V245.64H33.8877V243H40.0077H43.3877ZM51.6675 255.76C50.6409 256.773 49.3875 257.28 47.9075 257.28C46.4275 257.28 45.1742 256.773 44.1475 255.76C43.1342 254.733 42.6275 253.48 42.6275 252C42.6275 250.52 43.1342 249.273 44.1475 248.26C45.1742 247.233 46.4275 246.72 47.9075 246.72C49.3875 246.72 50.6409 247.233 51.6675 248.26C52.6942 249.273 53.2075 250.52 53.2075 252C53.2075 253.48 52.6942 254.733 51.6675 255.76ZM45.9675 253.98C46.4875 254.5 47.1342 254.76 47.9075 254.76C48.6809 254.76 49.3275 254.5 49.8475 253.98C50.3675 253.46 50.6275 252.8 50.6275 252C50.6275 251.2 50.3675 250.54 49.8475 250.02C49.3275 249.5 48.6809 249.24 47.9075 249.24C47.1342 249.24 46.4875 249.5 45.9675 250.02C45.4609 250.54 45.2075 251.2 45.2075 252C45.2075 252.8 45.4609 253.46 45.9675 253.98ZM65.7225 247V257H63.2225V250.82L61.0625 255.12H59.6625L57.5025 250.82V257H55.0225V247H57.5025H57.7425L60.3625 252.22L63.0025 247H65.7225ZM83.6689 257H80.5489L77.9089 252.48L75.2689 257H72.1689L76.3489 249.8L72.3889 243H75.5089L77.9089 247.14L80.3289 243H83.4289L79.4689 249.8L83.6689 257ZM88.6905 246.72C89.8638 246.72 90.8372 247.067 91.6105 247.76C92.3838 248.44 92.7705 249.4 92.7705 250.64V257H90.2505V256.14C89.6238 256.9 88.7172 257.28 87.5305 257.28C86.5838 257.28 85.7838 257.007 85.1305 256.46C84.4905 255.9 84.1705 255.12 84.1705 254.12C84.1705 253.12 84.4905 252.347 85.1305 251.8C85.7838 251.253 86.5838 250.98 87.5305 250.98C88.6638 250.98 89.5705 251.273 90.2505 251.86V250.8C90.2505 249.68 89.7305 249.12 88.6905 249.12C88.2238 249.12 87.8505 249.24 87.5705 249.48C87.2905 249.707 87.1505 250.013 87.1505 250.4H84.6305C84.6305 249.267 85.0172 248.373 85.7905 247.72C86.5772 247.053 87.5438 246.72 88.6905 246.72ZM88.4105 255.36C88.9705 255.36 89.4172 255.247 89.7505 255.02C90.0838 254.78 90.2505 254.48 90.2505 254.12C90.2505 253.733 90.0838 253.433 89.7505 253.22C89.4305 252.993 88.9838 252.88 88.4105 252.88C87.8638 252.88 87.4505 252.993 87.1705 253.22C86.8905 253.447 86.7505 253.747 86.7505 254.12C86.7505 254.493 86.8905 254.793 87.1705 255.02C87.4505 255.247 87.8638 255.36 88.4105 255.36ZM100.686 246.72C102.033 246.72 103.18 247.233 104.126 248.26C105.086 249.273 105.566 250.52 105.566 252C105.566 253.48 105.086 254.733 104.126 255.76C103.18 256.773 102.033 257.28 100.686 257.28C99.2996 257.28 98.2196 256.8 97.4463 255.84V261H94.8663V247H97.4463V248.16C98.2196 247.2 99.2996 246.72 100.686 246.72ZM100.206 254.82C101.006 254.82 101.666 254.56 102.186 254.04C102.72 253.507 102.986 252.827 102.986 252C102.986 251.173 102.72 250.5 102.186 249.98C101.666 249.447 101.006 249.18 100.206 249.18C99.4463 249.18 98.8063 249.427 98.2863 249.92C97.7663 250.4 97.4863 251.033 97.4463 251.82V252.18C97.4863 252.967 97.7663 253.607 98.2863 254.1C98.8063 254.58 99.4463 254.82 100.206 254.82ZM115.81 254.66H117.13V257V259.88H114.61V257H108.81V259.88H106.29V256.28V254.66H107.45C108.063 253.82 108.37 252.613 108.37 251.04V247H110.89H114.87H115.81V254.66ZM110.23 254.66H113.29V249.32H110.89V251.04C110.89 252.493 110.67 253.7 110.23 254.66ZM125.393 247H127.313V257H124.793V251.2L120.693 257H118.773V247H121.293V252.8L125.393 247Z" fill="white"/>
<line x1="33.4893" y1="221.54" x2="467.767" y2="221.54" stroke="#1E2538" stroke-width="2"/>
<path d="M33.3377 192.7C34.299 192.7 35.0877 193.003 35.7037 193.61C36.3197 194.207 36.6277 194.982 36.6277 195.934C36.6277 196.886 36.3197 197.665 35.7037 198.272C35.0877 198.869 34.299 199.168 33.3377 199.168C32.3764 199.168 31.5877 198.869 30.9717 198.272C30.3557 197.665 30.0477 196.886 30.0477 195.934C30.0477 195.197 30.2484 194.543 30.6497 193.974L33.8557 189.2H34.9617L32.5537 192.784C32.8057 192.728 33.067 192.7 33.3377 192.7ZM31.6577 197.586C32.087 198.006 32.647 198.216 33.3377 198.216C34.0284 198.216 34.5837 198.006 35.0037 197.586C35.433 197.166 35.6477 196.615 35.6477 195.934C35.6477 195.253 35.433 194.702 35.0037 194.282C34.5837 193.862 34.0284 193.652 33.3377 193.652C32.647 193.652 32.087 193.862 31.6577 194.282C31.2377 194.702 31.0277 195.253 31.0277 195.934C31.0277 196.615 31.2377 197.166 31.6577 197.586ZM40.7615 192.7C41.7228 192.7 42.5115 193.003 43.1275 193.61C43.7435 194.207 44.0515 194.982 44.0515 195.934C44.0515 196.886 43.7435 197.665 43.1275 198.272C42.5115 198.869 41.7228 199.168 40.7615 199.168C39.8002 199.168 39.0115 198.869 38.3955 198.272C37.7795 197.665 37.4715 196.886 37.4715 195.934C37.4715 195.197 37.6722 194.543 38.0735 193.974L41.2795 189.2H42.3855L39.9775 192.784C40.2295 192.728 40.4908 192.7 40.7615 192.7ZM39.0815 197.586C39.5108 198.006 40.0708 198.216 40.7615 198.216C41.4522 198.216 42.0075 198.006 42.4275 197.586C42.8568 197.166 43.0715 196.615 43.0715 195.934C43.0715 195.253 42.8568 194.702 42.4275 194.282C42.0075 193.862 41.4522 193.652 40.7615 193.652C40.0708 193.652 39.5108 193.862 39.0815 194.282C38.6615 194.702 38.4515 195.253 38.4515 195.934C38.4515 196.615 38.6615 197.166 39.0815 197.586ZM54.4153 192V199H53.4913V192.896H50.6073V196.018C50.6073 197.185 50.3833 197.987 49.9353 198.426C49.4967 198.865 48.89 199.056 48.1153 199V198.132C48.6473 198.188 49.0393 198.062 49.2913 197.754C49.5527 197.446 49.6833 196.867 49.6833 196.018V192H50.6073H54.4153ZM59.5432 191.832C60.5698 191.832 61.3912 192.196 62.0072 192.924C62.6325 193.652 62.9452 194.52 62.9452 195.528C62.9452 195.631 62.9358 195.775 62.9172 195.962H61.9932H56.9112C57.0045 196.671 57.2892 197.236 57.7652 197.656C58.2505 198.067 58.8478 198.272 59.5572 198.272C60.0612 198.272 60.4998 198.165 60.8732 197.95C61.2465 197.726 61.5125 197.437 61.6712 197.082H62.6932C62.4972 197.698 62.1145 198.202 61.5452 198.594C60.9758 198.977 60.3085 199.168 59.5432 199.168C58.4792 199.168 57.6158 198.823 56.9532 198.132C56.2905 197.441 55.9592 196.564 55.9592 195.5C55.9592 194.455 56.2905 193.582 56.9532 192.882C57.6158 192.182 58.4792 191.832 59.5432 191.832ZM59.5432 192.728C58.8152 192.728 58.2132 192.943 57.7372 193.372C57.2705 193.801 56.9952 194.366 56.9112 195.066H61.9932C61.9092 194.329 61.6385 193.755 61.1812 193.344C60.7238 192.933 60.1778 192.728 59.5432 192.728ZM68.5564 192V192.896H66.3584V199H65.4344V192.896H63.2364V192H66.3584H68.5564Z" fill="#F2F60F"/>
<path d="M39.6093 174.319C38.9393 174.879 38.1243 175.159 37.1643 175.159C36.2043 175.159 35.3893 174.879 34.7193 174.319C34.0493 173.759 33.7143 172.954 33.7143 171.904V171.679H35.4393V171.904C35.4393 172.424 35.5943 172.819 35.9043 173.089C36.2143 173.349 36.6343 173.479 37.1643 173.479C37.6943 173.479 38.1143 173.349 38.4243 173.089C38.7343 172.819 38.8893 172.424 38.8893 171.904V164.464H40.6143V171.904C40.6143 172.954 40.2793 173.759 39.6093 174.319ZM45.2687 167.269C46.1387 167.269 46.8537 167.524 47.4137 168.034C47.9737 168.544 48.2537 169.254 48.2537 170.164V174.964H46.6637V174.259C46.1837 174.859 45.4737 175.159 44.5337 175.159C43.8137 175.159 43.2037 174.954 42.7037 174.544C42.2037 174.124 41.9537 173.534 41.9537 172.774C41.9537 172.014 42.2037 171.429 42.7037 171.019C43.2037 170.609 43.8137 170.404 44.5337 170.404C45.4437 170.404 46.1537 170.659 46.6637 171.169V170.239C46.6637 169.739 46.5387 169.374 46.2887 169.144C46.0387 168.904 45.6987 168.784 45.2687 168.784C44.8587 168.784 44.5237 168.889 44.2637 169.099C44.0037 169.299 43.8737 169.579 43.8737 169.939H42.2837C42.2837 169.129 42.5637 168.484 43.1237 168.004C43.6937 167.514 44.4087 167.269 45.2687 167.269ZM45.0587 173.899C45.5387 173.899 45.9237 173.794 46.2137 173.584C46.5137 173.374 46.6637 173.104 46.6637 172.774C46.6637 172.434 46.5137 172.164 46.2137 171.964C45.9237 171.764 45.5387 171.664 45.0587 171.664C44.5687 171.664 44.1987 171.764 43.9487 171.964C43.6987 172.164 43.5737 172.434 43.5737 172.774C43.5737 173.114 43.6987 173.389 43.9487 173.599C44.1987 173.799 44.5687 173.899 45.0587 173.899ZM57.192 172.339C57.002 173.169 56.562 173.849 55.872 174.379C55.182 174.899 54.387 175.159 53.487 175.159C52.357 175.159 51.412 174.779 50.652 174.019C49.902 173.259 49.527 172.324 49.527 171.214C49.527 170.094 49.902 169.159 50.652 168.409C51.412 167.649 52.357 167.269 53.487 167.269C54.397 167.269 55.192 167.534 55.872 168.064C56.562 168.584 57.002 169.259 57.192 170.089H55.482C55.322 169.709 55.062 169.409 54.702 169.189C54.352 168.969 53.947 168.859 53.487 168.859C52.827 168.859 52.272 169.084 51.822 169.534C51.372 169.984 51.147 170.544 51.147 171.214C51.147 171.884 51.372 172.444 51.822 172.894C52.272 173.344 52.827 173.569 53.487 173.569C53.947 173.569 54.357 173.459 54.717 173.239C55.077 173.009 55.332 172.709 55.482 172.339H57.192ZM65.0273 174.964H63.0923L60.0923 171.499V174.964H58.4723V164.464H60.0923V170.779L62.9423 167.464H64.8773L61.6673 171.139L65.0273 174.964ZM66.1188 166.264V164.464H67.7388V166.264H66.1188ZM66.1188 174.964V167.464H67.7388V174.964H66.1188ZM70.8798 171.904C70.9998 172.504 71.2648 172.964 71.6748 173.284C72.0948 173.604 72.5998 173.764 73.1898 173.764C73.5898 173.764 73.9498 173.679 74.2698 173.509C74.5898 173.339 74.8198 173.119 74.9598 172.849L76.6098 172.834C76.3798 173.554 75.9548 174.124 75.3348 174.544C74.7248 174.954 73.9998 175.159 73.1598 175.159C71.9798 175.159 71.0248 174.789 70.2948 174.049C69.5648 173.299 69.1998 172.354 69.1998 171.214C69.1998 170.084 69.5648 169.144 70.2948 168.394C71.0248 167.644 71.9698 167.269 73.1298 167.269C74.2298 167.269 75.1248 167.654 75.8148 168.424C76.5048 169.184 76.8498 170.119 76.8498 171.229C76.8498 171.399 76.8298 171.624 76.7898 171.904H70.8798ZM70.8648 170.569H75.2148C75.1148 169.969 74.8698 169.514 74.4798 169.204C74.0998 168.894 73.6498 168.739 73.1298 168.739C72.5298 168.739 72.0298 168.904 71.6298 169.234C71.2298 169.564 70.9748 170.009 70.8648 170.569ZM87.0531 175.159C85.4731 175.159 84.1631 174.639 83.1231 173.599C82.0831 172.549 81.5631 171.254 81.5631 169.714C81.5631 168.174 82.0831 166.884 83.1231 165.844C84.1631 164.794 85.4731 164.269 87.0531 164.269C88.2631 164.269 89.3331 164.624 90.2631 165.334C91.2031 166.034 91.8081 166.944 92.0781 168.064H90.2631C90.0431 167.424 89.6381 166.914 89.0481 166.534C88.4581 166.144 87.7931 165.949 87.0531 165.949C85.9331 165.949 85.0231 166.304 84.3231 167.014C83.6331 167.724 83.2881 168.624 83.2881 169.714C83.2881 170.804 83.6331 171.704 84.3231 172.414C85.0231 173.124 85.9331 173.479 87.0531 173.479C87.7931 173.479 88.4581 173.289 89.0481 172.909C89.6381 172.519 90.0431 172.004 90.2631 171.364H92.0781C91.8181 172.474 91.2181 173.384 90.2781 174.094C89.3381 174.804 88.2631 175.159 87.0531 175.159ZM97.071 167.269C97.791 167.269 98.381 167.529 98.841 168.049C99.311 168.559 99.546 169.254 99.546 170.134V174.964H97.926V170.224C97.926 169.764 97.796 169.409 97.536 169.159C97.286 168.909 96.956 168.784 96.546 168.784C96.086 168.784 95.701 168.934 95.391 169.234C95.091 169.534 94.941 170.009 94.941 170.659V174.964H93.321V164.464H94.941V168.319C95.401 167.619 96.111 167.269 97.071 167.269ZM104.141 167.269C105.011 167.269 105.726 167.524 106.286 168.034C106.846 168.544 107.126 169.254 107.126 170.164V174.964H105.536V174.259C105.056 174.859 104.346 175.159 103.406 175.159C102.686 175.159 102.076 174.954 101.576 174.544C101.076 174.124 100.826 173.534 100.826 172.774C100.826 172.014 101.076 171.429 101.576 171.019C102.076 170.609 102.686 170.404 103.406 170.404C104.316 170.404 105.026 170.659 105.536 171.169V170.239C105.536 169.739 105.411 169.374 105.161 169.144C104.911 168.904 104.571 168.784 104.141 168.784C103.731 168.784 103.396 168.889 103.136 169.099C102.876 169.299 102.746 169.579 102.746 169.939H101.156C101.156 169.129 101.436 168.484 101.996 168.004C102.566 167.514 103.281 167.269 104.141 167.269ZM103.931 173.899C104.411 173.899 104.796 173.794 105.086 173.584C105.386 173.374 105.536 173.104 105.536 172.774C105.536 172.434 105.386 172.164 105.086 171.964C104.796 171.764 104.411 171.664 103.931 171.664C103.441 171.664 103.071 171.764 102.821 171.964C102.571 172.164 102.446 172.434 102.446 172.774C102.446 173.114 102.571 173.389 102.821 173.599C103.071 173.799 103.441 173.899 103.931 173.899ZM112.569 167.269C113.289 167.269 113.879 167.529 114.339 168.049C114.809 168.559 115.044 169.254 115.044 170.134V174.964H113.424V170.224C113.424 169.764 113.294 169.409 113.034 169.159C112.784 168.909 112.454 168.784 112.044 168.784C111.584 168.784 111.199 168.934 110.889 169.234C110.589 169.534 110.439 170.009 110.439 170.659V174.964H108.819V167.464H110.439V168.319C110.899 167.619 111.609 167.269 112.569 167.269Z" fill="#3B486B"/>
<path d="M400.666 164.987V166.592H399.466V168.482H397.726V166.592H392.491V164.987L396.106 157.982H397.981L394.351 164.987H397.726V162.257H399.466V164.987H400.666ZM401.897 164.702V163.142H407.447V164.702H401.897ZM410.699 165.422C410.819 166.022 411.084 166.482 411.494 166.802C411.914 167.122 412.419 167.282 413.009 167.282C413.409 167.282 413.769 167.197 414.089 167.027C414.409 166.857 414.639 166.637 414.779 166.367L416.429 166.352C416.199 167.072 415.774 167.642 415.154 168.062C414.544 168.472 413.819 168.677 412.979 168.677C411.799 168.677 410.844 168.307 410.114 167.567C409.384 166.817 409.019 165.872 409.019 164.732C409.019 163.602 409.384 162.662 410.114 161.912C410.844 161.162 411.789 160.787 412.949 160.787C414.049 160.787 414.944 161.172 415.634 161.942C416.324 162.702 416.669 163.637 416.669 164.747C416.669 164.917 416.649 165.142 416.609 165.422H410.699ZM410.684 164.087H415.034C414.934 163.487 414.689 163.032 414.299 162.722C413.919 162.412 413.469 162.257 412.949 162.257C412.349 162.257 411.849 162.422 411.449 162.752C411.049 163.082 410.794 163.527 410.684 164.087ZM429.602 160.982V168.482H428.027V163.442L426.182 167.042H425.222L423.377 163.442V168.482H421.802V160.982H423.377H423.542L425.702 165.197L427.862 160.982H429.602ZM432.73 165.422C432.85 166.022 433.115 166.482 433.525 166.802C433.945 167.122 434.45 167.282 435.04 167.282C435.44 167.282 435.8 167.197 436.12 167.027C436.44 166.857 436.67 166.637 436.81 166.367L438.46 166.352C438.23 167.072 437.805 167.642 437.185 168.062C436.575 168.472 435.85 168.677 435.01 168.677C433.83 168.677 432.875 168.307 432.145 167.567C431.415 166.817 431.05 165.872 431.05 164.732C431.05 163.602 431.415 162.662 432.145 161.912C432.875 161.162 433.82 160.787 434.98 160.787C436.08 160.787 436.975 161.172 437.665 161.942C438.355 162.702 438.7 163.637 438.7 164.747C438.7 164.917 438.68 165.142 438.64 165.422H432.73ZM432.715 164.087H437.065C436.965 163.487 436.72 163.032 436.33 162.722C435.95 162.412 435.5 162.257 434.98 162.257C434.38 162.257 433.88 162.422 433.48 162.752C433.08 163.082 432.825 163.527 432.715 164.087ZM447.328 165.857C447.138 166.687 446.698 167.367 446.008 167.897C445.318 168.417 444.523 168.677 443.623 168.677C442.493 168.677 441.548 168.297 440.788 167.537C440.038 166.777 439.663 165.842 439.663 164.732C439.663 163.612 440.038 162.677 440.788 161.927C441.548 161.167 442.493 160.787 443.623 160.787C444.533 160.787 445.328 161.052 446.008 161.582C446.698 162.102 447.138 162.777 447.328 163.607H445.618C445.458 163.227 445.198 162.927 444.838 162.707C444.488 162.487 444.083 162.377 443.623 162.377C442.963 162.377 442.408 162.602 441.958 163.052C441.508 163.502 441.283 164.062 441.283 164.732C441.283 165.402 441.508 165.962 441.958 166.412C442.408 166.862 442.963 167.087 443.623 167.087C444.083 167.087 444.493 166.977 444.853 166.757C445.213 166.527 445.468 166.227 445.618 165.857H447.328ZM453.592 160.982V162.512H451.447V168.482H449.827V162.512H447.667V160.982H451.447H453.592ZM457.964 168.677C456.864 168.677 455.929 168.297 455.159 167.537C454.389 166.777 454.004 165.842 454.004 164.732C454.004 163.622 454.389 162.687 455.159 161.927C455.929 161.167 456.864 160.787 457.964 160.787C459.074 160.787 460.009 161.167 460.769 161.927C461.539 162.687 461.924 163.622 461.924 164.732C461.924 165.842 461.539 166.777 460.769 167.537C460.009 168.297 459.074 168.677 457.964 168.677ZM456.299 166.427C456.749 166.877 457.304 167.102 457.964 167.102C458.624 167.102 459.179 166.877 459.629 166.427C460.079 165.977 460.304 165.412 460.304 164.732C460.304 164.052 460.079 163.487 459.629 163.037C459.179 162.587 458.624 162.362 457.964 162.362C457.304 162.362 456.749 162.587 456.299 163.037C455.849 163.487 455.624 164.052 455.624 164.732C455.624 165.412 455.849 165.977 456.299 166.427Z" fill="#F2F60F"/>
<path d="M45.0893 150.296H46.5893V152.876V155.756H43.8493V152.876H36.5493V155.756H33.7893V152.156V150.296H35.1093C35.9093 149.243 36.3093 147.643 36.3093 145.496V138.876H45.0893V150.296ZM38.0693 150.296H42.3493V141.456H39.0693V145.536C39.0693 147.603 38.7359 149.189 38.0693 150.296ZM61.8216 152.876H58.9216L55.8616 148.396V152.876H53.3416V148.396L50.2816 152.876H47.4016L51.0016 147.816L47.6016 142.876H50.4816L53.3416 147.216V142.876H55.8616V147.216L58.7216 142.876H61.6216L58.2016 147.816L61.8216 152.876ZM64.6808 148.936C64.8408 149.616 65.1608 150.136 65.6408 150.496C66.1342 150.843 66.7142 151.016 67.3808 151.016C67.8342 151.016 68.2475 150.923 68.6208 150.736C68.9942 150.549 69.2675 150.309 69.4408 150.016L71.9808 149.996C71.6742 150.996 71.1075 151.776 70.2808 152.336C69.4675 152.883 68.4942 153.156 67.3608 153.156C65.7608 153.156 64.4675 152.656 63.4808 151.656C62.4942 150.656 62.0008 149.396 62.0008 147.876C62.0008 146.369 62.4942 145.116 63.4808 144.116C64.4675 143.103 65.7408 142.596 67.3008 142.596C68.7542 142.596 69.9475 143.103 70.8808 144.116C71.8142 145.129 72.2808 146.383 72.2808 147.876C72.2808 148.303 72.2475 148.656 72.1808 148.936H64.6808ZM64.6608 146.916H69.7008C69.5542 146.236 69.2608 145.736 68.8208 145.416C68.3808 145.083 67.8675 144.916 67.2808 144.916C66.6008 144.916 66.0342 145.089 65.5808 145.436C65.1275 145.783 64.8208 146.276 64.6608 146.916ZM83.1043 152.876H80.1243L76.6243 148.356V152.876H74.0443V142.876H76.6243V147.276L79.9243 142.876H82.9043L79.1043 147.816L83.1043 152.876ZM90.9963 142.876H92.9163V152.876H90.3963V147.076L86.2963 152.876H84.3763V142.876H86.8963V148.676L90.9963 142.876ZM107.375 138.876H110.115V152.876H107.375V147.876C106.601 148.156 105.795 148.296 104.955 148.296C103.541 148.296 102.375 147.903 101.455 147.116C100.548 146.316 100.095 145.236 100.095 143.876V138.876H102.855V143.516C102.855 144.183 103.048 144.709 103.435 145.096C103.835 145.469 104.361 145.656 105.015 145.656C105.868 145.656 106.655 145.509 107.375 145.216V138.876ZM116.599 142.596C117.772 142.596 118.746 142.943 119.519 143.636C120.292 144.316 120.679 145.276 120.679 146.516V152.876H118.159V152.016C117.532 152.776 116.626 153.156 115.439 153.156C114.492 153.156 113.692 152.883 113.039 152.336C112.399 151.776 112.079 150.996 112.079 149.996C112.079 148.996 112.399 148.223 113.039 147.676C113.692 147.129 114.492 146.856 115.439 146.856C116.572 146.856 117.479 147.149 118.159 147.736V146.676C118.159 145.556 117.639 144.996 116.599 144.996C116.132 144.996 115.759 145.116 115.479 145.356C115.199 145.583 115.059 145.889 115.059 146.276H112.539C112.539 145.143 112.926 144.249 113.699 143.596C114.486 142.929 115.452 142.596 116.599 142.596ZM116.319 151.236C116.879 151.236 117.326 151.123 117.659 150.896C117.992 150.656 118.159 150.356 118.159 149.996C118.159 149.609 117.992 149.309 117.659 149.096C117.339 148.869 116.892 148.756 116.319 148.756C115.772 148.756 115.359 148.869 115.079 149.096C114.799 149.323 114.659 149.623 114.659 149.996C114.659 150.369 114.799 150.669 115.079 150.896C115.359 151.123 115.772 151.236 116.319 151.236ZM128.735 142.876H131.315V152.876H128.735V149.076H125.355V152.876H122.775V142.876H125.355V146.656H128.735V142.876Z" fill="white"/>
<line x1="33.4893" y1="117.832" x2="467.767" y2="117.832" stroke="#1E2538" stroke-width="2"/>
<path d="M35.1157 89.946C35.6104 90.1793 36.0024 90.506 36.2917 90.926C36.5904 91.3367 36.7397 91.808 36.7397 92.34C36.7397 93.2267 36.427 93.922 35.8017 94.426C35.1764 94.9207 34.397 95.168 33.4637 95.168C32.5304 95.168 31.751 94.9207 31.1257 94.426C30.5004 93.922 30.1877 93.2267 30.1877 92.34C30.1877 91.808 30.3324 91.3367 30.6217 90.926C30.9204 90.506 31.317 90.1793 31.8117 89.946C30.9437 89.4513 30.5097 88.7187 30.5097 87.748C30.5097 86.8707 30.799 86.1987 31.3777 85.732C31.9657 85.2653 32.661 85.032 33.4637 85.032C34.2664 85.032 34.957 85.2653 35.5357 85.732C36.1237 86.1987 36.4177 86.8707 36.4177 87.748C36.4177 88.7187 35.9837 89.4513 35.1157 89.946ZM34.8637 86.418C34.4904 86.1287 34.0237 85.984 33.4637 85.984C32.9037 85.984 32.4324 86.1287 32.0497 86.418C31.6764 86.7073 31.4897 87.1507 31.4897 87.748C31.4897 88.308 31.681 88.742 32.0637 89.05C32.4557 89.358 32.9224 89.512 33.4637 89.512C34.005 89.512 34.467 89.358 34.8497 89.05C35.2417 88.742 35.4377 88.308 35.4377 87.748C35.4377 87.1507 35.2464 86.7073 34.8637 86.418ZM31.7977 93.74C32.2177 94.0573 32.773 94.216 33.4637 94.216C34.1544 94.216 34.7097 94.0573 35.1297 93.74C35.5497 93.4133 35.7597 92.9467 35.7597 92.34C35.7597 91.7333 35.5497 91.2713 35.1297 90.954C34.7097 90.6273 34.1544 90.464 33.4637 90.464C32.773 90.464 32.2177 90.6273 31.7977 90.954C31.3777 91.2713 31.1677 91.7333 31.1677 92.34C31.1677 92.9467 31.3777 93.4133 31.7977 93.74ZM37.4409 85.2H43.4609V86.124L39.7649 95H38.7429L42.4389 86.124H37.4409V85.2ZM53.9642 88V95H53.0402V88.896H50.1562V92.018C50.1562 93.1847 49.9322 93.9873 49.4842 94.426C49.0455 94.8647 48.4388 95.056 47.6642 95V94.132C48.1962 94.188 48.5882 94.062 48.8402 93.754C49.1015 93.446 49.2322 92.8673 49.2322 92.018V88H50.1562H53.9642ZM59.092 87.832C60.1187 87.832 60.94 88.196 61.556 88.924C62.1813 89.652 62.494 90.52 62.494 91.528C62.494 91.6307 62.4847 91.7753 62.466 91.962H61.542H56.46C56.5533 92.6713 56.838 93.236 57.314 93.656C57.7993 94.0667 58.3967 94.272 59.106 94.272C59.61 94.272 60.0487 94.1647 60.422 93.95C60.7953 93.726 61.0613 93.4367 61.22 93.082H62.242C62.046 93.698 61.6633 94.202 61.094 94.594C60.5247 94.9767 59.8573 95.168 59.092 95.168C58.028 95.168 57.1647 94.8227 56.502 94.132C55.8393 93.4413 55.508 92.564 55.508 91.5C55.508 90.4547 55.8393 89.582 56.502 88.882C57.1647 88.182 58.028 87.832 59.092 87.832ZM59.092 88.728C58.364 88.728 57.762 88.9427 57.286 89.372C56.8193 89.8013 56.544 90.366 56.46 91.066H61.542C61.458 90.3287 61.1873 89.7547 60.73 89.344C60.2727 88.9333 59.7267 88.728 59.092 88.728ZM68.1053 88V88.896H65.9073V95H64.9833V88.896H62.7853V88H65.9073H68.1053Z" fill="#F2F60F"/>
<path d="M40.7643 60.7554V62.4054H38.1093V71.2554H36.3843V62.4054H33.7143V60.7554H38.1093H40.7643ZM41.6413 62.5554V60.7554H43.2613V62.5554H41.6413ZM41.6413 71.2554V63.7554H43.2613V71.2554H41.6413ZM48.8923 63.5604C49.6123 63.5604 50.2023 63.8204 50.6623 64.3404C51.1323 64.8504 51.3673 65.5454 51.3673 66.4254V71.2554H49.7473V66.5154C49.7473 66.0554 49.6173 65.7004 49.3573 65.4504C49.1073 65.2004 48.7773 65.0754 48.3673 65.0754C47.9073 65.0754 47.5223 65.2254 47.2123 65.5254C46.9123 65.8254 46.7623 66.3004 46.7623 66.9504V71.2554H45.1423V63.7554H46.7623V64.6104C47.2223 63.9104 47.9323 63.5604 48.8923 63.5604ZM56.7721 63.7554V65.3154H55.3921V71.2554H53.7721V65.3154H52.3921V63.7554H53.7721V61.3554H55.3921V63.7554H56.7721ZM61.3092 71.4504C60.2092 71.4504 59.2742 71.0704 58.5042 70.3104C57.7342 69.5504 57.3492 68.6154 57.3492 67.5054C57.3492 66.3954 57.7342 65.4604 58.5042 64.7004C59.2742 63.9404 60.2092 63.5604 61.3092 63.5604C62.4192 63.5604 63.3542 63.9404 64.1142 64.7004C64.8842 65.4604 65.2692 66.3954 65.2692 67.5054C65.2692 68.6154 64.8842 69.5504 64.1142 70.3104C63.3542 71.0704 62.4192 71.4504 61.3092 71.4504ZM59.6442 69.2004C60.0942 69.6504 60.6492 69.8754 61.3092 69.8754C61.9692 69.8754 62.5242 69.6504 62.9742 69.2004C63.4242 68.7504 63.6492 68.1854 63.6492 67.5054C63.6492 66.8254 63.4242 66.2604 62.9742 65.8104C62.5242 65.3604 61.9692 65.1354 61.3092 65.1354C60.6492 65.1354 60.0942 65.3604 59.6442 65.8104C59.1942 66.2604 58.9692 66.8254 58.9692 67.5054C58.9692 68.1854 59.1942 68.7504 59.6442 69.2004ZM77.4891 64.7904C78.0691 65.0704 78.5241 65.4854 78.8541 66.0354C79.1941 66.5854 79.3641 67.2004 79.3641 67.8804C79.3641 68.8304 79.0491 69.6304 78.4191 70.2804C77.7891 70.9304 76.9991 71.2554 76.0491 71.2554H70.9641H70.5891V60.7554H72.3141H74.8941C75.7641 60.7554 76.4741 61.0154 77.0241 61.5354C77.5841 62.0554 77.8641 62.7104 77.8641 63.5004C77.8641 63.9504 77.7391 64.3804 77.4891 64.7904ZM74.8941 62.3754H72.3141V64.4304H75.8091C76.0291 64.1904 76.1391 63.9054 76.1391 63.5754C76.1391 63.2254 76.0241 62.9404 75.7941 62.7204C75.5741 62.4904 75.2741 62.3754 74.8941 62.3754ZM75.8241 69.6354C76.3941 69.6354 76.8391 69.4604 77.1591 69.1104C77.4791 68.7604 77.6391 68.3254 77.6391 67.8054C77.6391 67.2754 77.4791 66.8404 77.1591 66.5004C76.8491 66.1504 76.4091 65.9754 75.8391 65.9754H72.3141V69.6354H75.8241ZM82.3726 64.8804C82.7826 64.0404 83.5026 63.6204 84.5326 63.6204V65.3754C83.9326 65.3354 83.4226 65.4804 83.0026 65.8104C82.5826 66.1304 82.3726 66.6604 82.3726 67.4004V71.2554H80.7526V63.7554H82.3726V64.8804ZM88.4523 63.5604C89.3223 63.5604 90.0373 63.8154 90.5973 64.3254C91.1573 64.8354 91.4373 65.5454 91.4373 66.4554V71.2554H89.8473V70.5504C89.3673 71.1504 88.6573 71.4504 87.7173 71.4504C86.9973 71.4504 86.3873 71.2454 85.8873 70.8354C85.3873 70.4154 85.1373 69.8254 85.1373 69.0654C85.1373 68.3054 85.3873 67.7204 85.8873 67.3104C86.3873 66.9004 86.9973 66.6954 87.7173 66.6954C88.6273 66.6954 89.3373 66.9504 89.8473 67.4604V66.5304C89.8473 66.0304 89.7223 65.6654 89.4723 65.4354C89.2223 65.1954 88.8823 65.0754 88.4523 65.0754C88.0423 65.0754 87.7073 65.1804 87.4473 65.3904C87.1873 65.5904 87.0573 65.8704 87.0573 66.2304H85.4673C85.4673 65.4204 85.7473 64.7754 86.3073 64.2954C86.8773 63.8054 87.5923 63.5604 88.4523 63.5604ZM88.2423 70.1904C88.7223 70.1904 89.1073 70.0854 89.3973 69.8754C89.6973 69.6654 89.8473 69.3954 89.8473 69.0654C89.8473 68.7254 89.6973 68.4554 89.3973 68.2554C89.1073 68.0554 88.7223 67.9554 88.2423 67.9554C87.7523 67.9554 87.3823 68.0554 87.1323 68.2554C86.8823 68.4554 86.7573 68.7254 86.7573 69.0654C86.7573 69.4054 86.8823 69.6804 87.1323 69.8904C87.3823 70.0904 87.7523 70.1904 88.2423 70.1904ZM94.8555 65.2404C94.6355 65.3804 94.5255 65.5854 94.5255 65.8554C94.5255 66.1254 94.6655 66.3404 94.9455 66.5004C95.2355 66.6504 95.5805 66.7704 95.9805 66.8604C96.3905 66.9404 96.8005 67.0454 97.2105 67.1754C97.6205 67.3054 97.9655 67.5354 98.2455 67.8654C98.5355 68.1854 98.6805 68.6104 98.6805 69.1404C98.6805 69.8604 98.4005 70.4254 97.8405 70.8354C97.2905 71.2454 96.5905 71.4504 95.7405 71.4504C94.8705 71.4504 94.1605 71.2304 93.6105 70.7904C93.0605 70.3504 92.7855 69.7304 92.7855 68.9304H94.3755C94.3755 69.6404 94.8305 69.9954 95.7405 69.9954C96.1405 69.9954 96.4605 69.9254 96.7005 69.7854C96.9405 69.6354 97.0605 69.4204 97.0605 69.1404C97.0605 68.8704 96.9155 68.6604 96.6255 68.5104C96.3455 68.3604 96.0005 68.2454 95.5905 68.1654C95.1805 68.0754 94.7705 67.9654 94.3605 67.8354C93.9605 67.7054 93.6155 67.4754 93.3255 67.1454C93.0455 66.8154 92.9055 66.3854 92.9055 65.8554C92.9055 65.1554 93.1755 64.6004 93.7155 64.1904C94.2655 63.7704 94.9405 63.5604 95.7405 63.5604C96.5305 63.5604 97.1905 63.7804 97.7205 64.2204C98.2605 64.6604 98.5305 65.2754 98.5305 66.0654H96.9405C96.9405 65.7154 96.8255 65.4554 96.5955 65.2854C96.3655 65.1054 96.0805 65.0154 95.7405 65.0154C95.3805 65.0154 95.0855 65.0904 94.8555 65.2404ZM101.799 65.2404C101.579 65.3804 101.469 65.5854 101.469 65.8554C101.469 66.1254 101.609 66.3404 101.889 66.5004C102.179 66.6504 102.524 66.7704 102.924 66.8604C103.334 66.9404 103.744 67.0454 104.154 67.1754C104.564 67.3054 104.909 67.5354 105.189 67.8654C105.479 68.1854 105.624 68.6104 105.624 69.1404C105.624 69.8604 105.344 70.4254 104.784 70.8354C104.234 71.2454 103.534 71.4504 102.684 71.4504C101.814 71.4504 101.104 71.2304 100.554 70.7904C100.004 70.3504 99.7289 69.7304 99.7289 68.9304H101.319C101.319 69.6404 101.774 69.9954 102.684 69.9954C103.084 69.9954 103.404 69.9254 103.644 69.7854C103.884 69.6354 104.004 69.4204 104.004 69.1404C104.004 68.8704 103.859 68.6604 103.569 68.5104C103.289 68.3604 102.944 68.2454 102.534 68.1654C102.124 68.0754 101.714 67.9654 101.304 67.8354C100.904 67.7054 100.559 67.4754 100.269 67.1454C99.9889 66.8154 99.8489 66.3854 99.8489 65.8554C99.8489 65.1554 100.119 64.6004 100.659 64.1904C101.209 63.7704 101.884 63.5604 102.684 63.5604C103.474 63.5604 104.134 63.7804 104.664 64.2204C105.204 64.6604 105.474 65.2754 105.474 66.0654H103.884C103.884 65.7154 103.769 65.4554 103.539 65.2854C103.309 65.1054 103.024 65.0154 102.684 65.0154C102.324 65.0154 102.029 65.0904 101.799 65.2404Z" fill="#3B486B"/>
<path d="M397.141 58.5487C397.911 58.7387 398.531 59.0987 399.001 59.6287C399.481 60.1487 399.721 60.8037 399.721 61.5937C399.721 62.6437 399.366 63.4687 398.656 64.0687C397.946 64.6687 397.076 64.9687 396.046 64.9687C395.016 64.9687 394.146 64.6687 393.436 64.0687C392.726 63.4687 392.371 62.6437 392.371 61.5937H394.096C394.096 62.1137 394.271 62.5287 394.621 62.8387C394.981 63.1387 395.456 63.2887 396.046 63.2887C396.646 63.2887 397.121 63.1387 397.471 62.8387C397.821 62.5287 397.996 62.1137 397.996 61.5937C397.996 61.0737 397.821 60.6637 397.471 60.3637C397.121 60.0637 396.646 59.9137 396.046 59.9137H395.056V58.7737L397.201 55.8937H392.806V54.2737H399.256V55.7437L397.141 58.5487ZM401.297 60.9937V59.4337H406.847V60.9937H401.297ZM410.098 61.7137C410.218 62.3137 410.483 62.7737 410.893 63.0937C411.313 63.4137 411.818 63.5737 412.408 63.5737C412.808 63.5737 413.168 63.4887 413.488 63.3187C413.808 63.1487 414.038 62.9287 414.178 62.6587L415.828 62.6437C415.598 63.3637 415.173 63.9337 414.553 64.3537C413.943 64.7637 413.218 64.9687 412.378 64.9687C411.198 64.9687 410.243 64.5987 409.513 63.8587C408.783 63.1087 408.418 62.1637 408.418 61.0237C408.418 59.8937 408.783 58.9537 409.513 58.2037C410.243 57.4537 411.188 57.0787 412.348 57.0787C413.448 57.0787 414.343 57.4637 415.033 58.2337C415.723 58.9937 416.068 59.9287 416.068 61.0387C416.068 61.2087 416.048 61.4337 416.008 61.7137H410.098ZM410.083 60.3787H414.433C414.333 59.7787 414.088 59.3237 413.698 59.0137C413.318 58.7037 412.868 58.5487 412.348 58.5487C411.748 58.5487 411.248 58.7137 410.848 59.0437C410.448 59.3737 410.193 59.8187 410.083 60.3787ZM429.001 57.2737V64.7737H427.426V59.7337L425.581 63.3337H424.621L422.776 59.7337V64.7737H421.201V57.2737H422.776H422.941L425.101 61.4887L427.261 57.2737H429.001ZM432.129 61.7137C432.249 62.3137 432.514 62.7737 432.924 63.0937C433.344 63.4137 433.849 63.5737 434.439 63.5737C434.839 63.5737 435.199 63.4887 435.519 63.3187C435.839 63.1487 436.069 62.9287 436.209 62.6587L437.859 62.6437C437.629 63.3637 437.204 63.9337 436.584 64.3537C435.974 64.7637 435.249 64.9687 434.409 64.9687C433.229 64.9687 432.274 64.5987 431.544 63.8587C430.814 63.1087 430.449 62.1637 430.449 61.0237C430.449 59.8937 430.814 58.9537 431.544 58.2037C432.274 57.4537 433.219 57.0787 434.379 57.0787C435.479 57.0787 436.374 57.4637 437.064 58.2337C437.754 58.9937 438.099 59.9287 438.099 61.0387C438.099 61.2087 438.079 61.4337 438.039 61.7137H432.129ZM432.114 60.3787H436.464C436.364 59.7787 436.119 59.3237 435.729 59.0137C435.349 58.7037 434.899 58.5487 434.379 58.5487C433.779 58.5487 433.279 58.7137 432.879 59.0437C432.479 59.3737 432.224 59.8187 432.114 60.3787ZM446.728 62.1487C446.538 62.9787 446.098 63.6587 445.408 64.1887C444.718 64.7087 443.923 64.9687 443.023 64.9687C441.893 64.9687 440.948 64.5887 440.188 63.8287C439.438 63.0687 439.063 62.1337 439.063 61.0237C439.063 59.9037 439.438 58.9687 440.188 58.2187C440.948 57.4587 441.893 57.0787 443.023 57.0787C443.933 57.0787 444.728 57.3437 445.408 57.8737C446.098 58.3937 446.538 59.0687 446.728 59.8987H445.018C444.858 59.5187 444.598 59.2187 444.238 58.9987C443.888 58.7787 443.483 58.6687 443.023 58.6687C442.363 58.6687 441.808 58.8937 441.358 59.3437C440.908 59.7937 440.683 60.3537 440.683 61.0237C440.683 61.6937 440.908 62.2537 441.358 62.7037C441.808 63.1537 442.363 63.3787 443.023 63.3787C443.483 63.3787 443.893 63.2687 444.253 63.0487C444.613 62.8187 444.868 62.5187 445.018 62.1487H446.728ZM452.992 57.2737V58.8037H450.847V64.7737H449.227V58.8037H447.067V57.2737H450.847H452.992ZM457.363 64.9687C456.263 64.9687 455.328 64.5887 454.558 63.8287C453.788 63.0687 453.403 62.1337 453.403 61.0237C453.403 59.9137 453.788 58.9787 454.558 58.2187C455.328 57.4587 456.263 57.0787 457.363 57.0787C458.473 57.0787 459.408 57.4587 460.168 58.2187C460.938 58.9787 461.323 59.9137 461.323 61.0237C461.323 62.1337 460.938 63.0687 460.168 63.8287C459.408 64.5887 458.473 64.9687 457.363 64.9687ZM455.698 62.7187C456.148 63.1687 456.703 63.3937 457.363 63.3937C458.023 63.3937 458.578 63.1687 459.028 62.7187C459.478 62.2687 459.703 61.7037 459.703 61.0237C459.703 60.3437 459.478 59.7787 459.028 59.3287C458.578 58.8787 458.023 58.6537 457.363 58.6537C456.703 58.6537 456.148 58.8787 455.698 59.3287C455.248 59.7787 455.023 60.3437 455.023 61.0237C455.023 61.7037 455.248 62.2687 455.698 62.7187Z" fill="#F2F60F"/>
<path d="M43.3877 35V37.64H40.0077V49H37.2477V37.64H33.8877V35H40.0077H43.3877ZM50.6074 39H52.5274V49H50.0074V43.2L45.9074 49H43.9874V39H46.5074V44.8L50.6074 39ZM60.8458 39H63.4258V49H60.8458V45.2H57.4658V49H54.8858V39H57.4658V42.78H60.8458V39ZM72.8642 39V41.42H70.1442V49H67.5642V41.42H64.8042V39H70.1442H72.8642ZM82.4488 47.76C81.4221 48.7733 80.1688 49.28 78.6888 49.28C77.2088 49.28 75.9554 48.7733 74.9288 47.76C73.9154 46.7333 73.4088 45.48 73.4088 44C73.4088 42.52 73.9154 41.2733 74.9288 40.26C75.9554 39.2333 77.2088 38.72 78.6888 38.72C80.1688 38.72 81.4221 39.2333 82.4488 40.26C83.4754 41.2733 83.9888 42.52 83.9888 44C83.9888 45.48 83.4754 46.7333 82.4488 47.76ZM76.7488 45.98C77.2688 46.5 77.9154 46.76 78.6888 46.76C79.4621 46.76 80.1088 46.5 80.6288 45.98C81.1488 45.46 81.4088 44.8 81.4088 44C81.4088 43.2 81.1488 42.54 80.6288 42.02C80.1088 41.5 79.4621 41.24 78.6888 41.24C77.9154 41.24 77.2688 41.5 76.7488 42.02C76.2421 42.54 75.9888 43.2 75.9888 44C75.9888 44.8 76.2421 45.46 76.7488 45.98ZM96.2838 40.3C97.6438 40.3 98.7571 40.7067 99.6238 41.52C100.49 42.32 100.924 43.36 100.924 44.64C100.924 45.9333 100.49 46.9867 99.6238 47.8C98.7571 48.6 97.6438 49 96.2838 49H91.8238H90.9238V35H93.6838H99.7238V37.64H93.6838V40.3H96.2838ZM96.2838 46.42C96.8304 46.42 97.2838 46.2667 97.6438 45.96C98.0038 45.64 98.1838 45.2 98.1838 44.64C98.1838 44.08 98.0038 43.6467 97.6438 43.34C97.2838 43.0333 96.8304 42.88 96.2838 42.88H93.6838V46.42H96.2838ZM108.323 38.72C109.67 38.72 110.816 39.2333 111.763 40.26C112.723 41.2733 113.203 42.52 113.203 44C113.203 45.48 112.723 46.7333 111.763 47.76C110.816 48.7733 109.67 49.28 108.323 49.28C106.936 49.28 105.856 48.8 105.083 47.84V53H102.503V39H105.083V40.16C105.856 39.2 106.936 38.72 108.323 38.72ZM107.843 46.82C108.643 46.82 109.303 46.56 109.823 46.04C110.356 45.5067 110.623 44.8267 110.623 44C110.623 43.1733 110.356 42.5 109.823 41.98C109.303 41.4467 108.643 41.18 107.843 41.18C107.083 41.18 106.443 41.4267 105.923 41.92C105.403 42.4 105.123 43.0333 105.083 43.82V44.18C105.123 44.9667 105.403 45.6067 105.923 46.1C106.443 46.58 107.083 46.82 107.843 46.82ZM118.808 38.72C119.981 38.72 120.954 39.0667 121.728 39.76C122.501 40.44 122.888 41.4 122.888 42.64V49H120.368V48.14C119.741 48.9 118.834 49.28 117.648 49.28C116.701 49.28 115.901 49.0067 115.248 48.46C114.608 47.9 114.288 47.12 114.288 46.12C114.288 45.12 114.608 44.3467 115.248 43.8C115.901 43.2533 116.701 42.98 117.648 42.98C118.781 42.98 119.688 43.2733 120.368 43.86V42.8C120.368 41.68 119.848 41.12 118.808 41.12C118.341 41.12 117.968 41.24 117.688 41.48C117.408 41.7067 117.268 42.0133 117.268 42.4H114.748C114.748 41.2667 115.134 40.3733 115.908 39.72C116.694 39.0533 117.661 38.72 118.808 38.72ZM118.528 47.36C119.088 47.36 119.534 47.2467 119.868 47.02C120.201 46.78 120.368 46.48 120.368 46.12C120.368 45.7333 120.201 45.4333 119.868 45.22C119.548 44.9933 119.101 44.88 118.528 44.88C117.981 44.88 117.568 44.9933 117.288 45.22C117.008 45.4467 116.868 45.7467 116.868 46.12C116.868 46.4933 117.008 46.7933 117.288 47.02C117.568 47.2467 117.981 47.36 118.528 47.36ZM134.743 45.34C134.517 46.4867 133.937 47.4333 133.003 48.18C132.07 48.9133 130.983 49.28 129.743 49.28C128.237 49.28 126.977 48.7733 125.963 47.76C124.963 46.7467 124.463 45.4933 124.463 44C124.463 42.5067 124.963 41.2533 125.963 40.24C126.977 39.2267 128.237 38.72 129.743 38.72C130.983 38.72 132.07 39.0867 133.003 39.82C133.937 40.5533 134.517 41.4933 134.743 42.64H132.023C131.837 42.2133 131.537 41.88 131.123 41.64C130.723 41.3867 130.263 41.26 129.743 41.26C128.983 41.26 128.343 41.52 127.823 42.04C127.303 42.5467 127.043 43.2 127.043 44C127.043 44.7867 127.303 45.44 127.823 45.96C128.343 46.4667 128.983 46.72 129.743 46.72C130.277 46.72 130.743 46.6 131.143 46.36C131.557 46.1067 131.85 45.7667 132.023 45.34H134.743ZM146.072 45.34C145.845 46.4867 145.265 47.4333 144.332 48.18C143.398 48.9133 142.312 49.28 141.072 49.28C139.565 49.28 138.305 48.7733 137.292 47.76C136.292 46.7467 135.792 45.4933 135.792 44C135.792 42.5067 136.292 41.2533 137.292 40.24C138.305 39.2267 139.565 38.72 141.072 38.72C142.312 38.72 143.398 39.0867 144.332 39.82C145.265 40.5533 145.845 41.4933 146.072 42.64H143.352C143.165 42.2133 142.865 41.88 142.452 41.64C142.052 41.3867 141.592 41.26 141.072 41.26C140.312 41.26 139.672 41.52 139.152 42.04C138.632 42.5467 138.372 43.2 138.372 44C138.372 44.7867 138.632 45.44 139.152 45.96C139.672 46.4667 140.312 46.72 141.072 46.72C141.605 46.72 142.072 46.6 142.472 46.36C142.885 46.1067 143.178 45.7667 143.352 45.34H146.072Z" fill="white"/>
</svg>
